<svg xmlns="http://www.w3.org/2000/svg" viewBox="-1 4 997 997">
  <path fill="#007fd2" d="M438.95 228.64C436.19 225 433.05 223.09 429.56 223.09C426.68 223.09 424.05 224.38 422.36 225.46C395.84 246.29 359.55 334.53 329.81 450.8L356.14 451.1C408.13 451.69 461.82 452.3 514.89 453.12C500.9 399.86 487.68 354.21 475.56 317.36C457.85 263.5 445.88 239.39 438.95 228.64Z"/>
  <path fill-rule="evenodd" fill="#007fd2" d="M995.99 502.47C995.99 777.5 773.03 1000.47 497.99 1000.47C222.95 1000.47 -0.01 777.5 -0.01 502.47C-0.01 227.43 222.95 4.47 497.99 4.47C773.03 4.47 995.99 227.43 995.99 502.47ZM865.81 491.08C865.81 478.29 856.8 467.63 844.66 465.2C844.59 465.19 844.52 465.17 844.44 465.15C844.3 465.13 844.16 465.08 844.02 465.06L843.53 465.01C842.24 464.8 840.93 464.67 839.59 464.65L836.1 464.32C752.69 458.35 666.88 456 586.38 454.39L586.22 453.8C547.04 306.84 498.1 156.59 432.11 156.59C370.62 156.87 315.19 255.59 267.32 450.07C233.5 449.64 202.67 449.17 173.6 448.67C171.95 448.64 170.47 448.63 169.15 448.63C162.95 448.63 159.92 448.89 158.42 449.09C142.05 451.99 130.17 466.27 130.17 483.06C130.17 500.18 142.95 514.86 159.6 517.26L159.94 517.61L251.64 517.61C243.13 556.52 235.67 595 229.44 632.07L226.71 648.39L226.68 649.17C226.74 661.76 237.03 672 249.61 672C257.59 672 264.82 667.84 268.95 661.36L269.6 661.88L314.68 517.61L531.82 517.61C548.41 580.29 565.62 645.01 588.36 705.75C600.52 738.23 628.99 814.3 676.57 814.68L677.11 814.68C750.75 814.68 779.45 695.73 798.46 616.99C802.54 600.05 806.07 585.42 809.4 574.67L810.73 570.23C811.04 569.19 811.21 568.09 811.21 566.94C811.21 560.64 806.1 555.53 799.8 555.53C794.91 555.53 790.75 558.6 789.12 562.92L787.5 567.33C781.25 584.63 775.47 600.99 770.35 615.49L769.96 616.58C738.09 706.85 723.54 748.05 695.04 748.06L694.34 748.05L693.23 748.09C656.75 748.09 622.4 599.79 609.47 543.97C607.23 534.3 605.18 525.42 603.29 517.61L839.18 517.61C843.61 517.61 847.78 516.5 851.44 514.58C851.88 514.36 852.59 513.93 853.76 513.22C854.88 512.45 855.97 511.6C862.02 506.64 865.81 499.26 865.81 491.08Z"/>
</svg>
